<?xml version="1.0" encoding="UTF-8" standalone="no"?>
<!-- Created with Inkscape (http://www.inkscape.org/) -->

<svg
   width="180"
   height="60"
   viewBox="0 0 47.624999 15.875"
   version="1.1"
   id="svg1"
   inkscape:version="1.4.2 (f4327f4, 2025-05-13)"
   xml:space="preserve"
   sodipodi:docname="sound_icon.svg"
   inkscape:export-filename="sound_icon.png"
   inkscape:export-xdpi="96"
   inkscape:export-ydpi="96"
   xmlns:inkscape="http://www.inkscape.org/namespaces/inkscape"
   xmlns:sodipodi="http://sodipodi.sourceforge.net/DTD/sodipodi-0.dtd"
   xmlns="http://www.w3.org/2000/svg"
   xmlns:svg="http://www.w3.org/2000/svg"><sodipodi:namedview
     id="namedview1"
     pagecolor="#000000"
     bordercolor="#ffffff"
     borderopacity="0.24705882"
     inkscape:showpageshadow="2"
     inkscape:pageopacity="0.0"
     inkscape:pagecheckerboard="true"
     inkscape:deskcolor="#000000"
     inkscape:document-units="px"
     inkscape:zoom="2.1863742"
     inkscape:cx="58.544417"
     inkscape:cy="8.918876"
     inkscape:window-width="1920"
     inkscape:window-height="991"
     inkscape:window-x="-9"
     inkscape:window-y="-9"
     inkscape:window-maximized="1"
     inkscape:current-layer="layer1" /><defs
     id="defs1"><inkscape:path-effect
       effect="fillet_chamfer"
       id="path-effect10"
       is_visible="true"
       lpeversion="1"
       nodesatellites_param="F,0,1,1,0,1.090671,0,1 @ F,0,1,1,0,1.090671,0,1 @ F,0,0,1,0,1.090671,0,1 @ F,0,1,1,0,1.090671,0,1 @ F,0,1,1,0,1.090671,0,1 @ F,0,1,1,0,1.090671,0,1"
       radius="0"
       unit="px"
       method="auto"
       mode="F"
       chamfer_steps="1"
       flexible="false"
       use_knot_distance="true"
       apply_no_radius="true"
       apply_with_radius="true"
       only_selected="false"
       hide_knots="false" /><inkscape:path-effect
       effect="fillet_chamfer"
       id="path-effect7"
       is_visible="true"
       lpeversion="1"
       nodesatellites_param="F,0,1,1,0,1.090671,0,1 @ F,0,1,1,0,1.090671,0,1 @ F,0,0,1,0,1.090671,0,1 @ F,0,1,1,0,1.090671,0,1 @ F,0,1,1,0,1.090671,0,1 @ F,0,1,1,0,1.090671,0,1"
       radius="0"
       unit="px"
       method="auto"
       mode="F"
       chamfer_steps="1"
       flexible="false"
       use_knot_distance="true"
       apply_no_radius="true"
       apply_with_radius="true"
       only_selected="false"
       hide_knots="false" /><inkscape:path-effect
       effect="fillet_chamfer"
       id="path-effect1"
       is_visible="true"
       lpeversion="1"
       nodesatellites_param="F,0,1,1,0,1.090671,0,1 @ F,0,1,1,0,1.090671,0,1 @ F,0,0,1,0,1.090671,0,1 @ F,0,1,1,0,1.090671,0,1 @ F,0,1,1,0,1.090671,0,1 @ F,0,1,1,0,1.090671,0,1"
       radius="0"
       unit="px"
       method="auto"
       mode="F"
       chamfer_steps="1"
       flexible="false"
       use_knot_distance="true"
       apply_no_radius="true"
       apply_with_radius="true"
       only_selected="false"
       hide_knots="false" /></defs><g
     inkscape:label="Layer 1"
     inkscape:groupmode="layer"
     id="layer1"><path
       style="fill:#ffffff;fill-opacity:1;stroke:none;stroke-width:0.264583;stroke-linecap:round;stroke-dashoffset:5.7;paint-order:stroke markers fill"
       d="M 6.7792752,10.847917 H 7.3759956 A 3.0623506,3.0623506 160.3964 0 0 9.3117894,10.158475 L 12.648627,7.4363172 A 0.51780462,0.51780462 25.396397 0 1 13.49375,7.8375459 V 18.88537 a 0.51780471,0.51780471 154.6036 0 1 -0.845123,0.401229 L 9.3117895,16.564442 A 3.0623512,3.0623512 19.603599 0 0 7.3759956,15.875 H 6.7792126 A 1.0906574,1.0906574 45.000357 0 1 5.6885552,14.784329 l 3.54e-5,-2.845741 a 1.0906846,1.0906846 135.00036 0 1 1.0906846,-1.090671 z"
       id="path1"
       sodipodi:nodetypes="ccccccc"
       inkscape:path-effect="#path-effect1"
       inkscape:original-d="M 5.6886042,10.847917 H 8.4666666 L 13.49375,6.7468749 V 19.976041 L 8.4666666,15.875 h -2.778125 z"
       transform="translate(-5.0601622,-5.377916)" /><path
       style="font-variation-settings:normal;fill:none;fill-opacity:0.549199;stroke:#ffffff;stroke-width:1.05833;stroke-linecap:round;stroke-linejoin:miter;stroke-miterlimit:4;stroke-dasharray:none;stroke-dashoffset:5.7;stroke-opacity:1;paint-order:stroke markers fill;stop-color:#000000"
       id="path2"
       sodipodi:type="arc"
       sodipodi:cx="6.9783797"
       sodipodi:cy="7.8512502"
       sodipodi:rx="4.7624998"
       sodipodi:ry="4.7624998"
       sodipodi:start="5.4977871"
       sodipodi:end="0.78539816"
       sodipodi:arc-type="arc"
       d="M 10.345975,4.4836541 A 4.7624998,4.7624998 0 0 1 11.74088,7.8512502 4.7624998,4.7624998 0 0 1 10.345976,11.218846"
       sodipodi:open="true" /><path
       style="fill:none;fill-opacity:0.549199;stroke:#ffffff;stroke-width:1.05833;stroke-linecap:round;stroke-dasharray:none;stroke-dashoffset:5.7;stroke-opacity:1;paint-order:stroke markers fill"
       id="circle3"
       sodipodi:type="arc"
       sodipodi:cx="6.9783797"
       sodipodi:cy="7.8512502"
       sodipodi:rx="7.7390623"
       sodipodi:ry="7.7390623"
       sodipodi:start="5.4977871"
       sodipodi:end="0.78539816"
       sodipodi:arc-type="arc"
       d="m 12.450723,2.3789065 a 7.7390623,7.7390623 0 0 1 2.266719,5.4723437 7.7390623,7.7390623 0 0 1 -2.266719,5.4723438"
       sodipodi:open="true" /><path
       style="fill:#ffffff;fill-opacity:1;stroke:none;stroke-width:0.264583;stroke-linecap:round;stroke-dashoffset:5.7;paint-order:stroke markers fill"
       d="M 6.7792752,10.847917 H 7.3759956 A 3.0623506,3.0623506 160.3964 0 0 9.3117894,10.158475 L 12.648627,7.4363172 A 0.51780462,0.51780462 25.396397 0 1 13.49375,7.8375459 V 18.88537 a 0.51780471,0.51780471 154.6036 0 1 -0.845123,0.401229 L 9.3117895,16.564442 A 3.0623512,3.0623512 19.603599 0 0 7.3759956,15.875 H 6.7792126 A 1.0906574,1.0906574 45.000357 0 1 5.6885552,14.784329 l 3.54e-5,-2.845741 a 1.0906846,1.0906846 135.00036 0 1 1.0906846,-1.090671 z"
       id="path4"
       sodipodi:nodetypes="ccccccc"
       transform="translate(10.814838,-5.377916)"
       inkscape:original-d="M 5.6886042,10.847917 H 8.4666666 L 13.49375,6.7468749 V 19.976041 L 8.4666666,15.875 h -2.778125 z"
       inkscape:path-effect="#path-effect7" /><path
       style="font-variation-settings:normal;fill:none;fill-opacity:0.549199;stroke:#ffffff;stroke-width:1.05833;stroke-linecap:round;stroke-linejoin:miter;stroke-miterlimit:4;stroke-dasharray:none;stroke-dashoffset:5.7;stroke-opacity:1;paint-order:stroke markers fill;stop-color:#000000"
       id="path5"
       sodipodi:type="arc"
       sodipodi:cx="22.85338"
       sodipodi:cy="7.8512502"
       sodipodi:rx="4.7624998"
       sodipodi:ry="4.7624998"
       sodipodi:start="5.4977871"
       sodipodi:end="0.78539816"
       sodipodi:arc-type="arc"
       d="M 26.220976,4.4836541 A 4.7624998,4.7624998 0 0 1 27.61588,7.8512502 4.7624998,4.7624998 0 0 1 26.220976,11.218846"
       sodipodi:open="true" /><path
       style="fill:#ffffff;fill-opacity:1;stroke:none;stroke-width:0.264583;stroke-linecap:round;stroke-dashoffset:5.7;paint-order:stroke markers fill"
       d="M 6.7792752,10.847917 H 7.3759956 A 3.0623506,3.0623506 160.3964 0 0 9.3117894,10.158475 L 12.648627,7.4363172 A 0.51780462,0.51780462 25.396397 0 1 13.49375,7.8375459 V 18.88537 a 0.51780471,0.51780471 154.6036 0 1 -0.845123,0.401229 L 9.3117895,16.564442 A 3.0623512,3.0623512 19.603599 0 0 7.3759956,15.875 H 6.7792126 A 1.0906574,1.0906574 45.000357 0 1 5.6885552,14.784329 l 3.54e-5,-2.845741 a 1.0906846,1.0906846 135.00036 0 1 1.0906846,-1.090671 z"
       id="path7"
       sodipodi:nodetypes="ccccccc"
       transform="translate(26.689839,-5.3779157)"
       inkscape:original-d="M 5.6886042,10.847917 H 8.4666666 L 13.49375,6.7468749 V 19.976041 L 8.4666666,15.875 h -2.778125 z"
       inkscape:path-effect="#path-effect10" /><path
       style="font-variation-settings:normal;opacity:1;fill:none;fill-opacity:1;stroke:#ffffff;stroke-width:1.05833;stroke-linecap:round;stroke-linejoin:miter;stroke-miterlimit:4;stroke-dasharray:none;stroke-dashoffset:21.5433;stroke-opacity:1;paint-order:stroke markers fill"
       d="m 42.333333,6.0854166 3.439583,3.4395833"
       id="path10"
       sodipodi:nodetypes="cc" /><path
       style="font-variation-settings:normal;opacity:1;fill:none;fill-opacity:1;stroke:#ffffff;stroke-width:1.05833;stroke-linecap:round;stroke-linejoin:miter;stroke-miterlimit:4;stroke-dasharray:none;stroke-dashoffset:21.5433;stroke-opacity:1;paint-order:stroke markers fill"
       d="M 45.772916,6.0854166 42.333333,9.5249999"
       id="path11"
       sodipodi:nodetypes="cc" /></g></svg>
